<?xml version="1.0" encoding="UTF-8" standalone="no"?>
<!-- Created with Inkscape (http://www.inkscape.org/) -->

<svg
   xmlns:dc="http://purl.org/dc/elements/1.1/"
   xmlns:cc="http://creativecommons.org/ns#"
   xmlns:rdf="http://www.w3.org/1999/02/22-rdf-syntax-ns#"
   xmlns:svg="http://www.w3.org/2000/svg"
   xmlns="http://www.w3.org/2000/svg"
   xmlns:sodipodi="http://sodipodi.sourceforge.net/DTD/sodipodi-0.dtd"
   xmlns:inkscape="http://www.inkscape.org/namespaces/inkscape"
   width="175.78764mm"
   height="49.847481mm"
   viewBox="0 0 175.78764 49.847481"
   version="1.1"
   id="svg8"
   inkscape:version="0.92.3 (2405546, 2018-03-11)"
   sodipodi:docname="GEGCO.svg">
  <defs
     id="defs2">
    <clipPath
       id="clipPath831"
       clipPathUnits="userSpaceOnUse">
      <path
         inkscape:connector-curvature="0"
         id="path829"
         d="M 0,2500 H 3000 V 0 H 0 Z" />
    </clipPath>
  </defs>
  <sodipodi:namedview
     id="base"
     pagecolor="#ffffff"
     bordercolor="#666666"
     borderopacity="1.0"
     inkscape:pageopacity="0.0"
     inkscape:pageshadow="2"
     inkscape:zoom="0.98994949"
     inkscape:cx="256.02997"
     inkscape:cy="41.549233"
     inkscape:document-units="mm"
     inkscape:current-layer="layer1"
     showgrid="false"
     inkscape:window-width="1920"
     inkscape:window-height="1005"
     inkscape:window-x="-9"
     inkscape:window-y="-9"
     inkscape:window-maximized="1"
     fit-margin-top="0"
     fit-margin-left="0"
     fit-margin-right="0"
     fit-margin-bottom="0" />
  <metadata
     id="metadata5">
    <rdf:RDF>
      <cc:Work
         rdf:about="">
        <dc:format>image/svg+xml</dc:format>
        <dc:type
           rdf:resource="http://purl.org/dc/dcmitype/StillImage" />
        <dc:title></dc:title>
      </cc:Work>
    </rdf:RDF>
  </metadata>
  <g
     inkscape:label="Layer 1"
     inkscape:groupmode="layer"
     id="layer1"
     transform="translate(-16.882966,-108.47374)">
    <g
       transform="matrix(0.07162477,0,0,-0.07162477,-5.2576437,224.04882)"
       inkscape:label="GEGCO logo"
       id="g823"
       style="stroke-width:4.9253602">
      <g
         id="g825"
         style="stroke-width:4.9253602">
        <g
           clip-path="url(#clipPath831)"
           id="g827"
           style="stroke-width:4.9253602">
          <g
             transform="translate(2279.2322,1337.3955)"
             id="g833"
             style="stroke-width:4.9253602">
            <path
               inkscape:connector-curvature="0"
               id="path835"
               style="fill:#b3872d;fill-opacity:1;fill-rule:nonzero;stroke:none;stroke-width:4.9253602"
               d="m 0,0 c 0.455,-5.742 0.947,-16.06 2.138,-26.296 5.443,-46.764 25.454,-86.632 58.479,-119.82 36.365,-36.546 79.546,-59.046 131.872,-62.434 29.106,-1.884 57.553,0.541 85.181,10.072 38.484,13.277 69.898,36.633 95.621,67.924 10.727,13.049 19.924,27.115 26.958,42.48 18.442,40.286 23.667,82.494 17.156,126.129 -5.497,36.839 -19.105,70.372 -42.879,99.381 -22.918,27.964 -49.801,50.74 -84.069,63.836 -31.811,12.157 -64.647,16.627 -98.554,13.905 C 155.178,212.228 121.118,201.812 90.774,180.282 69.751,165.365 51.966,147.332 37.268,126.234 11.813,89.694 0.664,48.756 0,0 m 193.466,276.01 c 108.873,-0.234 181.279,-39.591 237.271,-111.138 26.775,-34.213 43.976,-73.076 49.951,-116.1 13.628,-98.125 -12.149,-182.93 -87.312,-250.294 -37.762,-33.845 -81.533,-55.784 -131.578,-63.783 -77.776,-12.431 -150.663,-0.132 -215.136,47.554 -53.718,39.73 -89.984,91.551 -104.404,157.504 -6.913,31.617 -7.943,63.532 -4.83,95.778 10.688,110.686 96.509,195.134 177.753,224.425 25.045,9.029 55.32,16.47 78.285,16.054" />
          </g>
          <g
             transform="translate(794.3364,1513.178)"
             id="g837"
             style="stroke-width:4.9253602">
            <path
               inkscape:connector-curvature="0"
               id="path839"
               style="fill:#b3872d;fill-opacity:1;fill-rule:nonzero;stroke:none;stroke-width:4.9253602"
               d="m 0,0 c -15.879,-15.164 -30.66,-29.279 -45.78,-43.718 -1.261,1.411 -2.274,2.431 -3.159,3.551 -32.556,41.206 -74.42,68.502 -125.944,77.826 -70.83,12.818 -132.824,-6.57 -184.018,-57.897 -30.178,-30.257 -50.228,-66.156 -57.796,-108.447 -13.001,-72.658 5.258,-136.488 54.969,-191.174 27.056,-29.764 59.145,-51.646 98.673,-61.091 59.502,-14.218 112.708,-1.281 159.458,38.196 24.788,20.932 44.532,45.453 53.471,77.236 2.729,9.704 3.804,19.871 5.674,29.819 0.849,4.519 -0.722,6.108 -5.517,6.089 -41.159,-0.166 -82.318,-0.095 -123.477,-0.096 -6.559,-0.001 -6.588,-0.003 -6.596,6.44 -0.018,15.498 -0.007,30.995 -0.008,46.492 0,1.637 0,3.275 0,5.423 2.21,0.136 3.967,0.338 5.725,0.339 65.154,0.015 130.309,-0.053 195.463,0.135 5.213,0.015 6.227,-1.56 6.277,-6.468 0.327,-32.103 -1.272,-64.1 -11.278,-94.778 -29.525,-90.525 -89.176,-149.24 -183.786,-168.317 -56.614,-11.416 -111.994,-5.556 -164.498,19.926 -35.822,17.386 -65.396,42.695 -90.744,73.12 -29.665,35.608 -50.007,75.889 -57.629,121.738 -15.518,93.348 7.009,175.598 73.645,244.327 33.361,34.407 72.643,59.149 119.047,72.029 32.941,9.143 66.509,11.559 100.431,8.281 C -128.454,93.285 -76.471,70.975 -31.948,31.92 -20.858,22.192 -10.998,11.062 0,0" />
          </g>
          <g
             transform="translate(1653.4293,1469.4196)"
             id="g841"
             style="stroke-width:4.9253602">
            <path
               inkscape:connector-curvature="0"
               id="path843"
               style="fill:#b3872d;fill-opacity:1;fill-rule:nonzero;stroke:none;stroke-width:4.9253602"
               d="m 0,0 c -4.079,4.876 -7.653,9.454 -11.542,13.747 -34.415,37.991 -76.508,62.63 -127.543,69.303 -67.518,8.829 -125.931,-11.128 -174.131,-59.644 -28.73,-28.918 -48.475,-62.99 -56.594,-103.112 -14.656,-72.435 1.792,-136.941 50.667,-192.776 25.761,-29.43 56.311,-51.951 94.363,-62.642 62.36,-17.521 118.431,-5.143 167.863,36.855 25.421,21.598 45.148,47.088 53.648,79.954 2.236,8.646 3.113,17.64 4.681,26.463 0.822,4.621 -0.971,6.005 -5.631,5.988 -41.158,-0.152 -82.317,-0.083 -123.476,-0.072 -6.503,0.002 -6.517,0.019 -6.52,6.579 -0.006,15.663 0.106,31.328 -0.066,46.99 -0.042,3.857 1.028,5.202 5.074,5.195 65.82,-0.11 131.641,-0.074 197.461,-0.083 1.317,0 2.634,-0.143 4.124,-0.23 0.241,-0.881 0.619,-1.648 0.638,-2.425 0.855,-35.455 -1.167,-70.688 -12.875,-104.46 -27.966,-80.661 -81.608,-135.28 -164.714,-158.619 -32.501,-9.127 -65.844,-10.625 -99.469,-7.133 -68.115,7.073 -122.666,39.262 -167.341,89.822 -31.604,35.768 -53.087,76.768 -62.563,123.722 -5.228,25.909 -6.482,52.068 -4.642,78.478 2.737,39.284 12.709,76.49 32.448,110.554 35.415,61.117 85.218,105.693 152.874,128.504 38.961,13.136 79.123,15.93 119.798,10.881 C -80.074,135.211 -32.666,114.469 8.808,80.238 22.065,69.296 33.964,56.985 45.063,43.053 29.99,28.652 15.114,14.44 0,0" />
          </g>
          <g
             transform="translate(1167.7897,1078.6979)"
             id="g845"
             style="stroke-width:4.9253602">
            <path
               inkscape:connector-curvature="0"
               id="path847"
               style="fill:#b3872d;fill-opacity:1;fill-rule:nonzero;stroke:none;stroke-width:4.9253602"
               d="m 0,0 c -2.697,0 -4.499,0 -6.302,0 -89.638,-0.01 -179.276,0.013 -268.913,-0.126 -4.452,-0.007 -5.563,1.263 -5.56,5.624 0.108,170.778 0.094,341.557 0.096,512.336 v 5.357 c 2.403,0.135 4.341,0.339 6.279,0.339 89.305,0.015 178.609,0.014 267.914,0.008 6.473,0 6.481,-0.022 6.484,-6.579 0.007,-15.161 0.006,-30.323 0.009,-45.485 0,-1.965 0,-3.931 0,-6.666 h -6.831 c -67.479,0 -134.957,0.001 -202.436,-0.002 -6.862,0 -6.885,-0.01 -6.886,-6.748 -0.007,-44.819 0.075,-89.638 -0.114,-134.456 -0.021,-4.976 1.224,-6.484 6.338,-6.471 65.812,0.171 131.624,0.064 197.436,0.228 4.941,0.012 6.59,-1.063 6.462,-6.3 -0.379,-15.486 -0.138,-30.987 -0.144,-46.482 -0.003,-6.565 -0.008,-6.578 -6.464,-6.578 -65.479,-0.005 -130.958,-0.005 -196.437,-0.008 -7.071,-10e-4 -7.076,-0.006 -7.076,-6.976 0,-61.814 0.066,-123.628 -0.114,-185.441 -0.015,-5.084 1.341,-6.405 6.386,-6.393 67.644,0.164 135.29,0.11 202.935,0.108 C -0.003,59.288 -0.001,59.279 0,52.154 0.001,36.992 0,21.83 0,6.668 Z" />
          </g>
          <g
             transform="translate(2172.5081,1504.5359)"
             id="g849"
             style="stroke-width:4.9253602">
            <path
               inkscape:connector-curvature="0"
               id="path851"
               style="fill:#b3872d;fill-opacity:1;fill-rule:nonzero;stroke:none;stroke-width:4.9253602"
               d="m 0,0 c -1.878,1.361 -3.082,2.13 -4.171,3.037 -30.19,25.162 -64.758,39.909 -103.761,45.171 -127.461,17.197 -212.4,-74.818 -231.47,-160.666 -21.824,-98.245 17.771,-190.352 101.642,-240.165 31.884,-18.938 66.992,-25.804 103.887,-25.061 48.296,0.972 90.675,17.3 127.742,47.973 1.412,1.168 2.844,2.31 4.285,3.442 0.252,0.197 0.594,0.279 1.681,0.767 0.209,-1.904 0.546,-3.556 0.548,-5.209 0.028,-21.661 -0.063,-43.322 0.072,-64.983 0.022,-3.497 -1.279,-5.37 -4.252,-7.023 -31.953,-17.77 -65.993,-28.716 -102.431,-32.433 -48.432,-4.941 -95.661,0.017 -140.066,20.306 -74.883,34.215 -127.257,89.619 -152.29,168.981 -10.696,33.906 -12.747,68.869 -10.072,104.212 3.879,51.261 20.618,97.771 51.911,138.62 38.957,50.852 88.514,86.521 151.054,102.904 33.522,8.782 67.594,10.729 102.017,7.753 35.326,-3.055 68.438,-13.207 99.249,-30.865 C -0.994,74.794 0.536,72.685 0.497,68.6 0.294,47.607 0.4,26.611 0.372,5.617 0.37,4.037 0.169,2.457 0,0" />
          </g>
          <g
             transform="translate(724.2776,988.7438)"
             id="g853"
             style="stroke-width:4.9253602">
            <path
               inkscape:connector-curvature="0"
               id="path855"
               style="fill:#231f20;fill-opacity:1;fill-rule:nonzero;stroke:none;stroke-width:4.9253602"
               d="m 0,0 c 13.549,0 26.833,-0.341 40.087,0.147 6.429,0.236 10.868,4.814 11.613,9.927 0.828,5.677 -2.358,11.493 -7.968,14.276 -1.467,0.728 -3.117,1.52 -4.691,1.535 C 26.124,26.008 13.206,25.954 0,25.954 Z m -0.051,-50.015 c 13.116,0 25.899,-0.26 38.659,0.165 3.633,0.121 7.503,1.698 10.734,3.54 6.933,3.952 8.536,12.875 2.678,18.191 -3.969,3.602 -9.498,7.077 -14.599,7.523 -12.33,1.079 -24.818,0.35 -37.472,0.35 z M -21.859,-70.678 V 46.545 c 1.808,0.096 3.419,0.254 5.029,0.256 C 0.149,46.82 17.141,47.194 34.101,46.636 41.112,46.405 48.422,45.125 54.956,42.64 69.729,37.023 77.178,20.414 72.79,5.291 70.771,-1.667 65.942,-6.181 59.394,-9.991 c 9.572,-4.402 15.233,-11.463 17.265,-21.118 3.529,-16.766 -5.012,-31.696 -21.372,-36.698 -5.966,-1.824 -12.37,-2.909 -18.602,-3.043 -18.469,-0.397 -36.951,-0.157 -55.429,-0.146 -0.955,10e-4 -1.91,0.19 -3.115,0.318" />
          </g>
          <g
             transform="translate(1997.7404,995.7247)"
             id="g857"
             style="stroke-width:4.9253602">
            <path
               inkscape:connector-curvature="0"
               id="path859"
               style="fill:#231f20;fill-opacity:1;fill-rule:nonzero;stroke:none;stroke-width:4.9253602"
               d="M 0,0 V -77.718 H -21.64 V 39.811 c 5.328,0 10.466,0.222 15.563,-0.14 1.457,-0.103 3.109,-1.647 4.139,-2.95 18.365,-23.242 36.647,-46.55 54.954,-69.838 1.318,-1.678 2.687,-3.316 4.734,-5.837 V 39.425 H 79.734 V -77.976 c -5.34,0 -10.785,-0.271 -16.172,0.169 -1.558,0.128 -3.21,2.087 -4.381,3.556 C 40.72,-51.085 22.332,-27.861 3.92,-4.655 2.992,-3.485 1.998,-2.367 0,0" />
          </g>
          <g
             transform="translate(2293.0845,977.3656)"
             id="g861"
             style="stroke-width:4.9253602">
            <path
               inkscape:connector-curvature="0"
               id="path863"
               style="fill:#231f20;fill-opacity:1;fill-rule:nonzero;stroke:none;stroke-width:4.9253602"
               d="M 0,0 C 12.698,0 25.152,-0.608 37.513,0.194 47.289,0.828 53.173,8.326 53.462,18.069 53.74,27.397 47.596,36.101 38.3,36.774 25.628,37.691 12.84,37.003 0,37.003 Z m -21.851,57.22 c 21.656,0 42.982,0.91 64.185,-0.316 14.377,-0.832 25.14,-9.4 30.392,-23.232 5.308,-13.982 3.9,-27.496 -5.247,-39.649 -5.111,-6.793 -12.646,-9.957 -21.308,-12.212 12.077,-13.689 23.779,-26.953 36.594,-41.477 -9.625,0 -17.674,-0.136 -25.709,0.141 -1.26,0.043 -2.607,1.827 -3.656,3.031 -9.514,10.916 -18.874,21.97 -28.546,32.744 -1.526,1.699 -4.334,2.939 -6.644,3.108 -5.93,0.433 -11.913,0.144 -18.385,0.144 v -38.92 h -21.676 z" />
          </g>
          <g
             transform="translate(1220.1705,1013.8181)"
             id="g865"
             style="stroke-width:4.9253602">
            <path
               inkscape:connector-curvature="0"
               id="path867"
               style="fill:#231f20;fill-opacity:1;fill-rule:nonzero;stroke:none;stroke-width:4.9253602"
               d="m 0,0 v -74.285 c 9.907,0 19.399,-0.424 28.839,0.098 14.821,0.819 26.566,10.584 29.741,25.085 1.359,6.207 1.624,12.912 0.978,19.247 C 57.93,-13.878 46.681,-2.019 30.708,-0.21 20.734,0.92 10.528,0 0,0 M -22.061,-95.929 V 21.727 c 10.9,0 21.519,0.236 32.122,-0.069 9.777,-0.28 19.739,-0.097 29.264,-1.95 C 63.056,15.091 79.682,-4.674 81.773,-28.868 83.224,-45.662 80.636,-61.402 70.212,-75.129 59.957,-88.633 45.67,-95.006 29.241,-95.757 12.324,-96.531 -4.656,-95.929 -22.061,-95.929" />
          </g>
          <g
             transform="translate(1086.731,917.6662)"
             id="g869"
             style="stroke-width:4.9253602">
            <path
               inkscape:connector-curvature="0"
               id="path871"
               style="fill:#231f20;fill-opacity:1;fill-rule:nonzero;stroke:none;stroke-width:4.9253602"
               d="M 0,0 V 117.149 H 87.105 V 95.804 H 21.865 V 68.656 H 84.859 V 47.944 H 21.836 V 21.578 H 87.149 V 0 Z" />
          </g>
          <g
             transform="translate(1855.578,977.7644)"
             id="g873"
             style="stroke-width:4.9253602">
            <path
               inkscape:connector-curvature="0"
               id="path875"
               style="fill:#231f20;fill-opacity:1;fill-rule:nonzero;stroke:none;stroke-width:4.9253602"
               d="m 0,0 c 0.316,-2.488 0.557,-6.492 1.364,-10.378 3.509,-16.902 16.522,-28.433 32.789,-29.268 21.277,-1.094 34.956,7.429 40.625,25.533 1.084,3.463 1.887,7.12 2.107,10.731 C 77.79,11.472 74.401,25.034 61.998,34.396 49.141,44.1 34.745,44.712 20.553,37.68 5.862,30.4 0.429,17.248 0,0 M 38.267,-60.097 C 0.939,-59.855 -22.002,-35.641 -21.684,3.181 -21.406,36.952 5.331,62.562 40.002,62.264 74.223,61.969 99.314,35.817 99.001,0.769 98.674,-35.913 74.311,-60.329 38.267,-60.097" />
          </g>
          <g
             transform="translate(2445.3806,938.0289)"
             id="g877"
             style="stroke-width:4.9253602">
            <path
               inkscape:connector-curvature="0"
               id="path879"
               style="fill:#231f20;fill-opacity:1;fill-rule:nonzero;stroke:none;stroke-width:4.9253602"
               d="m 0,0 c 19.32,0.006 32.669,10.049 36.941,28.439 1.225,5.273 1.772,10.953 1.288,16.326 C 36.9,59.519 30.878,71.755 16.658,78.249 -9.014,89.972 -36.647,73.124 -38.524,44.773 -40.298,17.989 -24.812,-0.008 0,0 m 0.015,-20.362 c -35.882,-0.144 -60.321,24.065 -60.484,59.913 -0.162,35.811 25.568,62.351 60.526,62.431 C 34.963,102.061 60.255,76.629 60.361,41.344 60.471,4.439 36.359,-20.217 0.015,-20.362" />
          </g>
          <g
             transform="translate(659.2087,978.187)"
             id="g881"
             style="stroke-width:4.9253602">
            <path
               inkscape:connector-curvature="0"
               id="path883"
               style="fill:#231f20;fill-opacity:1;fill-rule:nonzero;stroke:none;stroke-width:4.9253602"
               d="M 0,0 C 0.358,29.438 -23.165,48.2 -50.303,39.791 -67.084,34.592 -75.424,22.064 -76.66,5.211 -78.952,-26.054 -58.319,-46.372 -26.165,-38.627 -9.756,-34.675 -0.241,-19.791 0,0 m -38.236,-60.519 c -36.071,-0.255 -60.396,23.997 -60.484,60.303 -0.085,35.389 25.334,61.75 59.83,62.045 34.887,0.299 60.508,-24.824 60.732,-59.55 0.245,-38.127 -23.107,-62.536 -60.078,-62.798" />
          </g>
          <g
             transform="translate(445.0966,1023.1833)"
             id="g885"
             style="stroke-width:4.9253602">
            <path
               inkscape:connector-curvature="0"
               id="path887"
               style="fill:#231f20;fill-opacity:1;fill-rule:nonzero;stroke:none;stroke-width:4.9253602"
               d="m 0,0 c -5.317,-4.931 -9.825,-9.111 -14.68,-13.613 -7.225,5.809 -15.855,9.896 -25.935,10.798 -22.485,2.011 -41.576,-13.488 -43.263,-35.988 -0.49,-6.53 -0.291,-13.484 1.427,-19.74 5.825,-21.219 24.99,-28.381 43.709,-25.937 6.332,0.827 12.347,4.395 18.368,7.027 1.217,0.532 2.507,2.464 2.567,3.804 0.273,6.101 0.12,12.221 0.12,18.95 -8.682,0 -16.796,0.161 -24.899,-0.071 -3.764,-0.108 -5.491,0.766 -5.171,4.946 0.365,4.762 0.085,9.574 0.085,14.544 h 50.21 c 0.087,-1.869 0.226,-3.488 0.228,-5.107 0.018,-13.159 0.206,-26.324 -0.146,-39.473 -0.074,-2.784 -1.49,-6.145 -3.415,-8.166 -10.977,-11.522 -24.702,-17.099 -40.566,-17.459 -19.347,-0.439 -37.163,3.517 -50.612,18.764 -11.595,13.145 -15.093,29.063 -13.927,46.012 1.461,21.234 9.845,38.924 28.789,50.19 22.823,13.571 54.268,10.381 74.068,-7.207 C -2.305,1.619 -1.46,1.085 0,0" />
          </g>
          <g
             transform="translate(2227.6897,968.4965)"
             id="g889"
             style="stroke-width:4.9253602">
            <path
               inkscape:connector-curvature="0"
               id="path891"
               style="fill:#231f20;fill-opacity:1;fill-rule:nonzero;stroke:none;stroke-width:4.9253602"
               d="m 0,0 h -29.68 v 19.468 h 49.79 c 0,-2.073 0,-4.16 0,-6.247 0.004,-12.991 0.144,-25.985 -0.113,-38.972 -0.046,-2.343 -1.155,-5.179 -2.739,-6.898 -11.609,-12.603 -26.337,-18.166 -43.274,-18.181 -16.941,-0.016 -32.804,3.443 -45.478,15.662 -13.541,13.055 -17.882,29.729 -17.063,47.802 0.82,18.097 7.101,34.036 21.262,46.213 C -45,78.018 -5.778,76.796 15.19,56.198 15.646,55.75 16.006,55.203 16.718,54.321 11.93,50.106 7.228,45.966 2.213,41.551 c -6.558,5.38 -15.074,9.448 -25.034,10.32 -24.117,2.113 -43.112,-14.675 -44.056,-39.064 -0.557,-14.408 2.956,-27.146 15.264,-35.991 13.266,-9.532 34.63,-9.439 48.07,-0.198 2.574,1.769 3.799,3.74 3.621,6.997 C -0.21,-11.12 0,-5.828 0,0" />
          </g>
          <g
             transform="translate(2680.3164,1013.478)"
             id="g893"
             style="stroke-width:4.9253602">
            <path
               inkscape:connector-curvature="0"
               id="path895"
               style="fill:#231f20;fill-opacity:1;fill-rule:nonzero;stroke:none;stroke-width:4.9253602"
               d="m 0,0 v -41.137 c 12.184,0 24.01,-0.474 35.779,0.141 10.577,0.553 18.116,9.44 18.347,20.12 0.23,10.569 -6.544,19.842 -16.971,20.654 C 24.965,0.727 12.643,0 0,0 M -0.394,-61.373 V -95.812 H -22.096 V 21.224 c 1.066,0.14 2.316,0.443 3.566,0.445 17.653,0.03 35.309,0.217 52.959,-0.028 C 59.617,21.29 76.887,3.103 76.196,-21.955 75.616,-42.959 58.81,-60.316 37.777,-61.174 27.135,-61.608 16.464,-61.331 5.806,-61.372 c -1.804,-0.007 -3.609,-10e-4 -6.2,-10e-4" />
          </g>
          <g
             transform="translate(2525.2722,1037.0433)"
             id="g897"
             style="stroke-width:4.9253602">
            <path
               inkscape:connector-curvature="0"
               id="path899"
               style="fill:#231f20;fill-opacity:1;fill-rule:nonzero;stroke:none;stroke-width:4.9253602"
               d="m 0,0 h 21.464 c 0,-1.945 0,-3.703 0.001,-5.46 0.001,-20.314 -0.08,-40.628 0.071,-60.94 0.031,-4.112 0.445,-8.352 1.523,-12.304 3.856,-14.126 15.131,-21.353 31.285,-20.485 13.514,0.725 23.061,9.641 25.222,23.847 0.622,4.088 0.855,8.269 0.872,12.41 0.085,20.782 0.039,41.566 0.039,62.736 h 21.971 v -7.631 c 0,-19.813 0.187,-39.63 -0.111,-59.439 -0.091,-6.087 -0.848,-12.332 -2.432,-18.199 -5.28,-19.553 -20.452,-31.888 -41.183,-33.599 -16.458,-1.359 -31.852,1.461 -44.436,13.335 -9.619,9.076 -14.229,20.658 -14.545,33.441 -0.579,23.462 -0.177,46.949 -0.166,70.425 0,0.471 0.208,0.942 0.425,1.863" />
          </g>
          <g
             transform="translate(1322.5236,1036.9675)"
             id="g901"
             style="stroke-width:4.9253602">
            <path
               inkscape:connector-curvature="0"
               id="path903"
               style="fill:#231f20;fill-opacity:1;fill-rule:nonzero;stroke:none;stroke-width:4.9253602"
               d="m 0,0 h 21.465 c 0,-2.019 0,-3.801 0,-5.584 0.002,-19.83 -0.069,-39.66 0.062,-59.489 0.028,-4.131 0.366,-8.361 1.315,-12.367 3.579,-15.112 16.383,-23.377 32.927,-21.59 14.658,1.583 24.442,12.858 24.606,29.018 0.218,21.327 0.08,42.658 0.094,63.988 0.002,1.811 0,3.622 0,5.867 h 21.687 c 0.091,-1.557 0.249,-3.018 0.25,-4.479 0.017,-21.497 0.246,-42.996 -0.039,-64.489 -0.473,-35.728 -25.755,-54.378 -59.964,-49.374 -27.569,4.032 -42.773,22.975 -42.869,50.885 -0.076,21.996 0.018,43.991 0.049,65.987 C -0.417,-1.313 -0.263,-1 0,0" />
          </g>
          <g
             transform="translate(1535.9553,949.513)"
             id="g905"
             style="stroke-width:4.9253602">
            <path
               inkscape:connector-curvature="0"
               id="path907"
               style="fill:#231f20;fill-opacity:1;fill-rule:nonzero;stroke:none;stroke-width:4.9253602"
               d="M 0,0 C 5.239,-4.886 10.208,-9.52 15.149,-14.129 -2.705,-36.103 -48.619,-37.926 -71.607,-17.983 -95.836,3.036 -97.932,47.958 -75.24,71.867 -51.992,96.362 -8.978,96.731 13.247,72.975 8.866,68.032 4.497,63.103 -0.113,57.903 -11.652,68.036 -24.517,71.044 -38.678,68.331 -47.804,66.582 -55.485,62.104 -61.156,54.588 -73.017,38.867 -71.722,13.005 -58.446,-0.296 -45.625,-13.143 -18.936,-16.593 0,0" />
          </g>
          <g
             transform="translate(1715.1937,1014.9893)"
             id="g909"
             style="stroke-width:4.9253602">
            <path
               inkscape:connector-curvature="0"
               id="path911"
               style="fill:#231f20;fill-opacity:1;fill-rule:nonzero;stroke:none;stroke-width:4.9253602"
               d="M 0,0 H -36.9 V 19.87 H 59.159 V 0.133 H 22.14 V -97.323 H 0 Z" />
          </g>
          <g
             transform="translate(1033.4965,917.6662)"
             id="g913"
             style="stroke-width:4.9253602">
            <path
               inkscape:connector-curvature="0"
               id="path915"
               style="fill:#231f20;fill-opacity:1;fill-rule:nonzero;stroke:none;stroke-width:4.9253602"
               d="M 0,0 H -82.094 V 117.224 H -60.56 V 20.656 H 0 Z" />
          </g>
          <g
             transform="translate(471.0462,917.6662)"
             id="g917"
             style="stroke-width:4.9253602">
            <path
               inkscape:connector-curvature="0"
               id="path919"
               style="fill:#231f20;fill-opacity:1;fill-rule:nonzero;stroke:none;stroke-width:4.9253602"
               d="M 0,0 V 117.067 H 21.668 V 20.646 H 81.65 V 0 Z" />
          </g>
          <path
             inkscape:connector-curvature="0"
             id="path921"
             style="fill:#231f20;fill-opacity:1;fill-rule:nonzero;stroke:none;stroke-width:4.9253602"
             d="m 1812.516,917.666 h -21.168 v 117.242 h 21.168 z" />
          <g
             transform="translate(850.5233,960.9162)"
             id="g923"
             style="stroke-width:4.9253602">
            <path
               inkscape:connector-curvature="0"
               id="path925"
               style="fill:#231f20;fill-opacity:1;fill-rule:nonzero;stroke:none;stroke-width:4.9253602"
               d="M 0,0 21.5,49.5 43.75,0 Z M 34,73.5 H 9.5 l -52,-116 H -18 L -9.5,-21 H 52 l 10.5,-22.25 h 23.75 z" />
          </g>
          <g
             transform="translate(1596.0681,960.9162)"
             id="g927"
             style="stroke-width:4.9253602">
            <path
               inkscape:connector-curvature="0"
               id="path929"
               style="fill:#231f20;fill-opacity:1;fill-rule:nonzero;stroke:none;stroke-width:4.9253602"
               d="M 0,0 21.5,49.5 43.75,0 Z M 34,73.5 H 9.5 l -52,-116 H -18 L -9.5,-21 H 52 l 10.5,-22.25 h 23.75 z" />
          </g>
        </g>
      </g>
    </g>
  </g>
</svg>
